<svg width="22" height="22" viewBox="0 0 22 22" fill="none" xmlns="http://www.w3.org/2000/svg">
<path d="M21.6035 9.31445L21.4932 8.84619H11.3154V13.1538H17.3965C16.7651 16.1519 13.8354 17.73 11.4424 17.73C9.70117 17.73 7.86572 16.9976 6.65088 15.8203C6.00993 15.1893 5.49973 14.438 5.14951 13.6095C4.79928 12.781 4.6159 11.8916 4.60986 10.9922C4.60986 9.17773 5.42529 7.36279 6.61182 6.16895C7.79834 4.9751 9.59033 4.30713 11.3721 4.30713C13.4126 4.30713 14.875 5.39063 15.4219 5.88477L18.4829 2.83984C17.585 2.05078 15.1182 0.0625 11.2734 0.0625C8.30713 0.0625 5.46289 1.19873 3.38379 3.271C1.33203 5.31152 0.27002 8.26221 0.27002 11C0.27002 13.7378 1.2749 16.541 3.26318 18.5977C5.3877 20.791 8.39648 21.9375 11.4946 21.9375C14.3135 21.9375 16.9854 20.833 18.8896 18.8291C20.7617 16.8564 21.73 14.127 21.73 11.2656C21.73 10.061 21.6089 9.3457 21.6035 9.31445Z" fill="#D6006E"/>
</svg>
