<svg width="33" height="33" viewBox="0 0 33 33" fill="none" xmlns="http://www.w3.org/2000/svg">
<g clip-path="url(#clip0_1_631)">
<path d="M27.6523 17.6786C27.9023 17.4286 28.0427 17.0895 28.0427 16.736C28.0427 16.3824 27.9023 16.0433 27.6523 15.7933L20.1097 8.25063C19.8582 8.00775 19.5214 7.87336 19.1718 7.8764C18.8222 7.87944 18.4878 8.01966 18.2406 8.26687C17.9934 8.51409 17.8531 8.8485 17.8501 9.1981C17.8471 9.54769 17.9815 9.88449 18.2243 10.136L23.491 15.4026L5.83368 15.4026C5.48005 15.4026 5.14091 15.5431 4.89087 15.7932C4.64082 16.0432 4.50034 16.3823 4.50034 16.736C4.50034 17.0896 4.64082 17.4287 4.89087 17.6788C5.14091 17.9288 5.48005 18.0693 5.83368 18.0693L23.491 18.0693L18.2243 23.336C17.9815 23.5874 17.8471 23.9242 17.8501 24.2738C17.8531 24.6234 17.9934 24.9578 18.2406 25.2051C18.4878 25.4523 18.8222 25.5925 19.1718 25.5955C19.5214 25.5986 19.8582 25.4642 20.1097 25.2213L27.6523 17.6786Z" fill="#D33F67"/>
</g>
<defs>
<clipPath id="clip0_1_631">
<rect width="32" height="32" fill="white" transform="matrix(-1 0 0 -1 32.5002 32.736)"/>
</clipPath>
</defs>
</svg>
