<svg width="24" height="24" viewBox="0 0 24 24" fill="none" xmlns="http://www.w3.org/2000/svg">
<g clip-path="url(#clip0_23_789)">
<path d="M22.4676 1.35434L6.10991 14.9863M9.96362 18.8572L13.6973 22.5738C13.9266 22.8088 14.2133 22.9798 14.529 23.07C14.8447 23.1602 15.1785 23.1665 15.4973 23.0881C15.8179 23.0134 16.1139 22.8574 16.3568 22.6353C16.5997 22.4131 16.7813 22.1322 16.8842 21.8195L23.0145 3.44234C23.1427 3.09814 23.1694 2.72435 23.0912 2.36544C23.0131 2.00654 22.8335 1.67765 22.5738 1.41792C22.314 1.15819 21.9851 0.978568 21.6262 0.900433C21.2673 0.822298 20.8935 0.848942 20.5493 0.977193L2.17219 7.10919C1.84875 7.21941 1.56062 7.41403 1.3376 7.67292C1.11457 7.93181 0.964752 8.24557 0.903621 8.58177C0.840481 8.88775 0.854426 9.20463 0.944201 9.50388C1.03398 9.80313 1.19676 10.0754 1.41791 10.2961L6.10991 14.9881L5.95562 20.9298L9.96362 18.8572Z" stroke="#271D24" stroke-width="1.71429" stroke-linecap="round" stroke-linejoin="round"/>
</g>
<defs>
<clipPath id="clip0_23_789">
<rect width="24" height="24" fill="white"/>
</clipPath>
</defs>
</svg>
