<?xml version="1.0" encoding="UTF-8" standalone="no"?>
<!-- Created with Inkscape (http://www.inkscape.org/) -->

<svg
   version="1.1"
   id="svg132"
   width="1258.251"
   height="959.82501"
   viewBox="0 0 1258.251 959.82501"
   sodipodi:docname="Variaciones_Logo.ai"
   xmlns:inkscape="http://www.inkscape.org/namespaces/inkscape"
   xmlns:sodipodi="http://sodipodi.sourceforge.net/DTD/sodipodi-0.dtd"
   xmlns="http://www.w3.org/2000/svg"
   xmlns:svg="http://www.w3.org/2000/svg">
  <defs
     id="defs136">
    <clipPath
       clipPathUnits="userSpaceOnUse"
       id="clipPath200">
      <path
         d="M 0,1080 H 1080 V 0 H 0 Z"
         id="path198" />
    </clipPath>
  </defs>
  <sodipodi:namedview
     id="namedview134"
     pagecolor="#505050"
     bordercolor="#eeeeee"
     borderopacity="1"
     inkscape:showpageshadow="0"
     inkscape:pageopacity="0"
     inkscape:pagecheckerboard="0"
     inkscape:deskcolor="#505050"
     showgrid="false" />
  <g
     id="g192"
     inkscape:groupmode="layer"
     inkscape:label="Page 2"
     transform="matrix(1.3333333,0,0,-1.3333333,-90.874408,1199.9122)">
    <g
       id="g194">
      <g
         id="g196"
         clip-path="url(#clipPath200)">
        <g
           id="g202"
           transform="translate(536.146,802.7012)">
          <path
             d="m 0,0 c 0,0 0.001,0.001 0.001,0.001 73.103,48.76 95.661,54.4 106.27,54.4 18.81,0 65.04,-23.41 137.392,-69.555 8.63,1.756 14.78,5.036 17.481,9.401 1.375,2.22 1.548,4.249 1.473,5.342 C 245.889,13.586 122.92,97.233 95.006,97.233 90.055,97.233 71.789,92.719 9.255,50.909 -3.537,42.337 -17.519,32.644 -32.383,22.046 -20.501,14.398 -9.291,6.594 0,0"
             style="fill:#ff6656;fill-opacity:1;fill-rule:nonzero;stroke:none"
             id="path204" />
        </g>
        <g
           id="g206"
           transform="translate(642.4171,837.2206)">
          <path
             d="m 0,0 c -5.62,0 -26.15,-4.975 -95.236,-51.057 -15.088,-10.07 -31.469,-21.404 -48.78,-33.75 13.744,-8.719 26.962,-17.896 37.878,-25.636 0.002,0.001 0.005,0.003 0.008,0.005 77.363,51.588 101.126,57.555 112.272,57.555 13.955,0 57.754,-13.816 194.285,-105.707 8.336,2.011 14.177,6.016 17.388,11.94 3.704,6.83 3.034,14.201 2.32,16.873 -7.101,5.692 -46.024,33.025 -90.191,61.275 C 30.671,-4.94 5.385,0 0,0"
             style="fill:#ff6656;fill-opacity:1;fill-rule:nonzero;stroke:none"
             id="path208" />
        </g>
        <g
           id="g210"
           transform="translate(277.6447,778.0086)">
          <path
             d="m 0,0 c 80.79,52.473 132.012,79.093 152.224,79.093 12.86,0 30.839,-6.78 54.965,-20.729 0.185,-0.107 0.369,-0.221 0.554,-0.328 10.929,7.852 21.428,15.255 31.39,22.132 -37.738,26.22 -63.315,39.549 -75.975,39.549 -28.281,0 -158.107,-85.178 -175.16,-98.448 -0.451,-3.27 -0.189,-11.132 3.607,-16.421 C -6.388,2.052 -3.671,0.491 0,0"
             style="fill:#02385f;fill-opacity:1;fill-rule:nonzero;stroke:none"
             id="path212" />
        </g>
        <g
           id="g214"
           transform="translate(359.3758,393.3649)">
          <path
             d="m 0,0 c -23.91,23.91 -42.439,50.978 -53.595,78.293 -0.135,0.306 -0.259,0.62 -0.372,0.927 -1.456,3.607 -2.712,7.157 -3.876,10.68 -11.232,-5.01 -26.48,-9.247 -46.003,-9.247 -38.188,0 -72.479,20.546 -83.39,49.965 -7.439,20.055 -2.677,40.645 12.985,57.668 -1.224,0.72 -2.415,1.454 -3.518,2.225 -3.495,2.423 -6.481,5.145 -8.904,8.112 -16.486,-19.097 -50.563,-61.569 -75.216,-112.556 -43.705,-90.387 -38.546,-163.539 15.332,-217.426 76.088,-76.088 165.474,-85.932 227.061,-80.805 68.564,5.718 136.808,33.566 181.09,73.416 L 31.049,-26.69 C 20.233,-18.757 9.787,-9.787 0,0"
             style="fill:#ff6656;fill-opacity:1;fill-rule:nonzero;stroke:none"
             id="path216" />
        </g>
        <g
           id="g218"
           transform="translate(469.4487,746.6913)">
          <path
             d="m 0,0 c -25.883,14.683 -39.006,17.766 -45.456,17.766 -19.105,0 -94.737,-42.485 -188.201,-105.716 -28.822,-19.494 -44.48,-30.992 -46.459,-32.816 0.012,0 -8.204,-10.869 -2.218,-20.022 1.314,-2.008 3.282,-3.93 5.852,-5.713 2.513,-1.756 5.628,-3.352 9.264,-4.785 18.387,12.582 65.004,44.018 111.041,71.36 67.727,40.224 88.794,44.876 98.749,44.876 7.727,0 22.694,-2.757 63.285,-26.596 0.162,-0.095 0.333,-0.198 0.496,-0.294 14.88,10.711 29.221,20.784 42.865,30.121 C 34.651,-21.597 17.009,-9.663 0,0"
             style="fill:#02385f;fill-opacity:1;fill-rule:nonzero;stroke:none"
             id="path220" />
        </g>
        <g
           id="g222"
           transform="translate(228.3128,677.6794)">
          <path
             d="m 0,0 c 23.652,15.936 65.84,43.74 106.368,67.329 60.571,35.252 79.981,39.329 89.312,39.329 13.044,0 31.123,-6.659 55.27,-20.357 0.21,-0.12 0.421,-0.248 0.631,-0.368 13.499,9.698 26.413,18.771 38.657,27.171 -12.801,8.981 -28.279,19.461 -43.676,28.382 -25.81,14.922 -38.721,18.055 -45.006,18.055 -12.04,0 -56.229,-20.404 -144.145,-77.668 C 15.253,54.422 -15.185,32.67 -19.283,29.152 -20.285,27.698 -23.721,20.911 -21.403,14.406 -18.69,6.795 -8.978,2.445 0,0"
             style="fill:#02385f;fill-opacity:1;fill-rule:nonzero;stroke:none"
             id="path224" />
        </g>
        <g
           id="g226"
           transform="translate(684.5079,393.4604)">
          <path
             d="m 0,0 0.001,-0.001 -131.883,-135.442 c 44.121,-41.664 114.296,-70.938 184.797,-76.817 61.589,-5.135 150.981,4.717 227.082,80.806 31.566,31.572 47.495,67.421 47.338,106.548 -0.373,93.615 -91.954,185.379 -124.709,217.647 -0.999,-0.836 -2.04,-1.634 -3.122,-2.391 -2.08,-1.433 -4.319,-2.696 -6.68,-3.828 16.727,-19.794 21.332,-42.832 12.48,-64.201 -11.623,-28.058 -44.212,-46.91 -81.093,-46.91 -18.52,0 -37.017,3.761 -54.977,11.179 -4.03,1.666 -7.67,3.377 -10.915,5.03 C 58.134,91.035 57.981,90.459 57.788,89.871 47.759,59.179 27.235,27.261 0,0"
             style="fill:#02385f;fill-opacity:1;fill-rule:nonzero;stroke:none"
             id="path228" />
        </g>
        <g
           id="g230"
           transform="translate(835.1564,659.8398)">
          <path
             d="m 0,0 c -92.708,62.575 -167.696,104.617 -186.598,104.617 -5.996,0 -27.863,-5.283 -101.245,-54.217 -16.501,-10.995 -34.313,-23.324 -53.038,-36.705 10.878,-6.802 22.799,-14.566 36.014,-23.455 81.988,55.179 106.765,61.561 118.269,61.561 37.7,0 175.345,-92.63 210.659,-116.83 5.348,1.082 9.872,2.862 13.456,5.331 2.401,1.68 4.381,3.649 5.998,5.983 5.429,7.905 4.602,17.396 3.698,20.52 C 43.176,-29.95 27.267,-18.405 0,0"
             style="fill:#ff6656;fill-opacity:1;fill-rule:nonzero;stroke:none"
             id="path232" />
        </g>
        <g
           id="g234"
           transform="translate(521.8932,492.6601)">
          <path
             d="m 0,0 c 8.485,11.949 18.196,23.42 29.001,34.225 29.505,29.495 63.879,50.796 96.789,59.983 34.909,9.744 64.371,4.859 82.968,-13.75 15.761,-15.763 21.594,-39.903 16.996,-68.084 3.674,-2.05 8.284,-4.376 13.687,-6.61 15.539,-6.417 31.482,-9.672 47.384,-9.672 28.937,0 54.144,13.92 62.726,34.637 6.499,15.691 1.946,32.597 -12.813,47.68 -2.319,1.617 -4.764,3.305 -7.335,5.063 C 245.942,140.94 149.519,199.1 126.666,199.1 120.431,199.1 97.505,193.43 19.469,140.907 -20.712,113.856 -59.93,84.817 -76.798,72.163 -60.058,61.848 -43.731,48.937 -29.019,34.225 -18.193,23.399 -8.478,11.93 0,0"
             style="fill:#ff6656;fill-opacity:1;fill-rule:nonzero;stroke:none"
             id="path236" />
        </g>
        <g
           id="g238"
           transform="translate(313.1414,573.1199)">
          <path
             d="m 0,0 c 23.971,23.994 66.745,24.665 112.896,2.234 8.083,6.128 45.075,34.003 86.55,62.647 -18.131,12.072 -33.685,21.896 -47.34,29.896 -36.675,21.539 -49.44,23.863 -53.227,23.863 -22.853,0 -119.276,-58.159 -202.713,-115.611 l -1.623,-1.117 c -1.05,-0.722 -2.081,-1.432 -3.089,-2.119 -14.323,-12.518 -19.23,-27.422 -13.816,-42.016 9.009,-24.289 39.392,-36.998 64.751,-36.998 18.155,0 31.618,4.288 40.886,8.923 C -22.088,-41.208 -16.423,-16.423 0,0"
             style="fill:#02385f;fill-opacity:1;fill-rule:nonzero;stroke:none"
             id="path240" />
        </g>
      </g>
    </g>
  </g>
</svg>
