<svg width="28" height="28" viewBox="0 0 28 28" fill="none" xmlns="http://www.w3.org/2000/svg">
<path opacity="0.5" d="M3.5 15.2098C3.5 13.923 3.5 13.279 3.9585 12.9045C4.12067 12.7715 4.31783 12.6642 4.53833 12.5907C5.159 12.3842 5.9745 12.5883 7.6055 12.9943C8.85033 13.3058 9.47217 13.461 10.1022 13.4447C10.3332 13.4388 10.563 13.4155 10.7882 13.3758C11.4007 13.2673 11.9467 12.9955 13.0387 12.4507L14.651 11.6457C16.051 10.9468 16.7498 10.598 17.5525 10.5175C18.3552 10.437 19.1532 10.6365 20.748 11.0343L22.1072 11.3727C23.2622 11.6608 23.8397 11.8055 24.1698 12.1485C24.5 12.4915 24.5 12.9477 24.5 13.8588V20.9568C24.5 22.2437 24.5 22.8877 24.0415 23.2622C23.8689 23.4011 23.6724 23.5075 23.4617 23.576C22.841 23.7825 22.0255 23.5795 20.3945 23.1723C19.1497 22.8608 18.5278 22.7057 17.8978 22.722C17.6678 22.7278 17.4385 22.7508 17.2118 22.7908C16.5993 22.8993 16.0533 23.1712 14.9613 23.716L13.349 24.521C11.949 25.2198 11.2502 25.5687 10.4475 25.6492C9.64483 25.7297 8.84683 25.5302 7.252 25.1323L5.89283 24.794C4.73783 24.5058 4.16033 24.3612 3.83017 24.0182C3.5 23.6752 3.5 23.219 3.5 22.3078V15.2098Z" fill="#271D24"/>
<path fill-rule="evenodd" clip-rule="evenodd" d="M14 0C10.1337 0 7 3.28118 7 7.32866C7 11.3453 9.23417 16.0318 12.7202 17.7071C13.1241 17.9003 13.5597 18 14 18C14.4403 18 14.8759 17.9003 15.2798 17.7071C18.7658 16.0331 21 11.3453 21 7.32866C21 3.28118 17.8663 0 14 0ZM14 10.2858C14.6188 10.2858 15.2123 10.0149 15.6499 9.53268C16.0875 9.05044 16.3333 8.39638 16.3333 7.71438C16.3333 7.03239 16.0875 6.37833 15.6499 5.89608C15.2123 5.41384 14.6188 5.14292 14 5.14292C13.3812 5.14292 12.7877 5.41384 12.3501 5.89608C11.9125 6.37833 11.6667 7.03239 11.6667 7.71438C11.6667 8.39638 11.9125 9.05044 12.3501 9.53268C12.7877 10.0149 13.3812 10.2858 14 10.2858Z" fill="#271D24"/>
</svg>
