<svg width="28" height="28" viewBox="0 0 28 28" fill="none" xmlns="http://www.w3.org/2000/svg">
<path d="M8.16683 26.8333C7.52516 26.8333 6.97605 26.605 6.5195 26.1485C6.06294 25.6919 5.83427 25.1424 5.8335 24.5V3.49996C5.8335 2.85829 6.06216 2.30918 6.5195 1.85263C6.97683 1.39607 7.52594 1.1674 8.16683 1.16663H19.8335C20.4752 1.16663 21.0247 1.39529 21.482 1.85263C21.9393 2.30996 22.1676 2.85907 22.1668 3.49996V24.5C22.1668 25.1416 21.9386 25.6911 21.482 26.1485C21.0254 26.6058 20.4759 26.8341 19.8335 26.8333H8.16683ZM8.16683 21V24.5H19.8335V21H8.16683ZM14.0002 23.9166C14.3307 23.9166 14.608 23.8046 14.832 23.5806C15.056 23.3566 15.1676 23.0797 15.1668 22.75C15.1668 22.4194 15.0548 22.1425 14.8308 21.9193C14.6068 21.6961 14.3299 21.5841 14.0002 21.5833C13.6696 21.5833 13.3927 21.6953 13.1695 21.9193C12.9463 22.1433 12.8343 22.4202 12.8335 22.75C12.8335 23.0805 12.9455 23.3578 13.1695 23.5818C13.3935 23.8058 13.6704 23.9174 14.0002 23.9166ZM8.16683 18.6666H19.8335V6.99996H8.16683V18.6666ZM8.16683 4.66663H19.8335V3.49996H8.16683V4.66663Z" fill="#271D24"/>
</svg>
