<svg width="40" height="40" viewBox="0 0 40 40" fill="none" xmlns="http://www.w3.org/2000/svg">
<path fill-rule="evenodd" clip-rule="evenodd" d="M31.2443 6.49679C31.2452 6.49706 31.246 6.49749 31.2476 6.49909L33.5011 8.75261C33.5027 8.75421 33.5031 8.75495 33.5034 8.75589C33.5037 8.75677 33.5037 8.75771 33.5034 8.75859C33.5031 8.75949 33.5027 8.76023 33.5011 8.76183L22.2627 20.0002L33.5011 31.2386C33.5027 31.2402 33.5031 31.241 33.5034 31.2419C33.5037 31.2428 33.5037 31.2437 33.5034 31.2446C33.5031 31.2455 33.5027 31.2462 33.5011 31.2478L31.2476 33.5014C31.246 33.503 31.2453 33.5034 31.2443 33.5037C31.2434 33.5039 31.2425 33.5039 31.2416 33.5037C31.2407 33.5034 31.24 33.503 31.2384 33.5014L20 22.263L8.76158 33.5014C8.76002 33.503 8.75924 33.5034 8.75834 33.5037C8.75745 33.5039 8.7565 33.5039 8.75561 33.5037C8.75475 33.5034 8.75397 33.503 8.75237 33.5014L6.49885 31.2478C6.49725 31.2462 6.49682 31.2455 6.49655 31.2446C6.49628 31.2437 6.49628 31.2427 6.49655 31.2419C6.49682 31.241 6.49725 31.2402 6.49885 31.2386L17.7372 20.0002L6.49885 8.76183C6.49725 8.76027 6.49682 8.75949 6.49655 8.75859C6.49627 8.7577 6.49627 8.75674 6.49655 8.75585C6.49682 8.75499 6.49725 8.75421 6.49885 8.75261L8.75237 6.49909C8.75397 6.49749 8.75471 6.49706 8.75565 6.49679C8.75653 6.49652 8.75746 6.49652 8.75834 6.49679C8.75924 6.49706 8.75998 6.49749 8.76158 6.49909L20 17.7375L31.2384 6.49909C31.2399 6.49749 31.2407 6.49706 31.2416 6.49679C31.2425 6.49651 31.2435 6.49651 31.2444 6.49679H31.2443Z" fill="#02385F"/>
</svg>
