<svg width="34" height="35" viewBox="0 0 34 35" fill="none" xmlns="http://www.w3.org/2000/svg">
<path d="M18.4297 15.3672C17.8883 15.3672 17.4688 15.7867 17.4688 16.3047C17.4688 16.8227 17.8883 17.2422 18.4297 17.2422C18.9242 17.2422 19.3438 16.8227 19.3438 16.3047C19.3438 15.7867 18.9242 15.3672 18.4297 15.3672ZM11.8672 15.3672C11.3258 15.3672 10.9062 15.7867 10.9062 16.3047C10.9062 16.8227 11.3258 17.2422 11.8672 17.2422C12.3617 17.2422 12.7812 16.8227 12.7812 16.3047C12.7812 15.7867 12.3617 15.3672 11.8672 15.3672Z" fill="#02385F"/>
<path d="M25.9531 13.586C24.8257 12.0391 23.2507 11.0055 21.5234 10.5391V10.5415C21.1226 10.0962 20.6702 9.68601 20.164 9.32038C16.3273 6.53132 10.9413 7.3821 8.14056 11.2188C5.88353 14.336 5.97962 18.529 8.28118 21.5079L8.29993 24.6157C8.29993 24.6907 8.31165 24.7657 8.33509 24.836C8.45931 25.2321 8.88118 25.4501 9.27493 25.3259L12.2421 24.3907C13.0273 24.6696 13.8382 24.829 14.6445 24.8735L14.6327 24.8829C16.721 26.404 19.4585 26.861 21.9687 26.0313L24.9476 27.0016C25.0226 27.0251 25.0999 27.0391 25.1796 27.0391C25.5945 27.0391 25.9296 26.704 25.9296 26.2891V23.1485C27.9945 20.3454 28.0484 16.4712 25.9531 13.586ZM12.5702 22.7266L12.289 22.6094L9.96868 23.336L9.94524 20.8985L9.75774 20.6876C7.77493 18.2688 7.64368 14.7837 9.49993 12.2266C11.7593 9.1282 16.0906 8.44382 19.1796 10.6798C22.2781 12.9321 22.9648 17.2563 20.7265 20.336C18.8491 22.9118 15.4882 23.8634 12.5702 22.7266ZM24.4062 22.3282L24.2187 22.5626L24.2421 25.0001L21.9452 24.2266L21.664 24.3438C20.3515 24.8313 18.9523 24.8712 17.6562 24.5079L17.6515 24.5055C19.3835 23.9735 20.9538 22.8954 22.0859 21.3438C23.8765 18.8759 24.1671 15.7751 23.1265 13.1313L23.1406 13.1407C23.6796 13.5274 24.1742 14.0102 24.5937 14.5938C26.2952 16.9282 26.1992 20.1063 24.4062 22.3282Z" fill="#02385F"/>
<path d="M15.1484 15.3672C14.607 15.3672 14.1875 15.7867 14.1875 16.3047C14.1875 16.8227 14.607 17.2422 15.1484 17.2422C15.643 17.2422 16.0625 16.8227 16.0625 16.3047C16.0625 15.7867 15.643 15.3672 15.1484 15.3672Z" fill="#02385F"/>
</svg>
