<svg width="34" height="35" viewBox="0 0 34 35" fill="none" xmlns="http://www.w3.org/2000/svg">
<path d="M26.1383 17.6672C26.532 17.1469 26.75 16.5094 26.75 15.8461C26.75 14.7938 26.1617 13.7977 25.2148 13.2422C24.9711 13.0992 24.6935 13.024 24.4109 13.0242H18.7906L18.9313 10.1438C18.9641 9.44767 18.718 8.78674 18.2398 8.28283C18.0052 8.03446 17.7221 7.83684 17.4081 7.7022C17.0941 7.56756 16.7557 7.49875 16.4141 7.50002C15.1953 7.50002 14.1172 8.32033 13.7938 9.49455L11.7805 16.7836H8.75C8.33516 16.7836 8 17.1188 8 17.5336V26.0649C8 26.4797 8.33516 26.8149 8.75 26.8149H22.843C23.0586 26.8149 23.2695 26.7727 23.4641 26.6883C24.5797 26.2125 25.2992 25.1227 25.2992 23.9133C25.2992 23.618 25.257 23.3274 25.1727 23.0461C25.5664 22.5258 25.7844 21.8883 25.7844 21.225C25.7844 20.9297 25.7422 20.6391 25.6578 20.3578C26.0516 19.8375 26.2695 19.2 26.2695 18.5367C26.2648 18.2414 26.2227 17.9485 26.1383 17.6672ZM9.6875 25.1274V18.4711H11.5859V25.1274H9.6875ZM24.6031 16.8539L24.0898 17.2992L24.4156 17.8946C24.523 18.0907 24.5786 18.3108 24.5773 18.5344C24.5773 18.9211 24.4086 19.2891 24.118 19.5422L23.6047 19.9875L23.9305 20.5828C24.0378 20.7789 24.0935 20.9991 24.0922 21.2227C24.0922 21.6094 23.9234 21.9774 23.6328 22.2305L23.1195 22.6758L23.4453 23.2711C23.5526 23.4672 23.6083 23.6874 23.607 23.911C23.607 24.436 23.2977 24.9094 22.8195 25.125H13.0859V18.3961L15.418 9.94689C15.4781 9.73033 15.6072 9.53927 15.7857 9.40267C15.9641 9.26606 16.1823 9.19135 16.407 9.18986C16.5852 9.18986 16.7609 9.24142 16.9016 9.34689C17.1336 9.52033 17.2578 9.78283 17.2437 10.0617L17.0187 14.7117H24.3875C24.8047 14.9672 25.0625 15.3985 25.0625 15.8461C25.0625 16.2328 24.8938 16.5985 24.6031 16.8539Z" fill="#02385F"/>
</svg>
