<svg width="25" height="25" viewBox="0 0 25 25" fill="none" xmlns="http://www.w3.org/2000/svg">
<path d="M13.2468 20.2591C13.2516 19.8613 13.0667 19.4775 12.7325 19.1921C12.3984 18.9067 11.9425 18.7431 11.4652 18.7373C10.9878 18.7315 10.5281 18.884 10.1871 19.1611C9.84618 19.4383 9.6519 19.8175 9.64705 20.2153C9.64221 20.6131 9.82719 20.9969 10.1613 21.2823C10.4954 21.5677 10.9513 21.7313 11.4286 21.7371C11.906 21.7429 12.3657 21.5905 12.7067 21.3133C13.0477 21.0361 13.2419 20.6569 13.2468 20.2591ZM13.3381 12.7597C13.343 12.3619 13.158 11.9781 12.8239 11.6927C12.4898 11.4073 12.0339 11.2437 11.5566 11.2379C11.0792 11.2321 10.6195 11.3845 10.2785 11.6617C9.93753 11.9389 9.74326 12.3181 9.73841 12.7158C9.73357 13.1136 9.91855 13.4975 10.2527 13.7829C10.5868 14.0682 11.0427 14.2318 11.52 14.2377C11.9974 14.2435 12.4571 14.091 12.7981 13.8139C13.139 13.5367 13.3333 13.1575 13.3381 12.7597ZM13.4295 5.26026C13.4343 4.86246 13.2494 4.47865 12.9153 4.19325C12.5811 3.90786 12.1253 3.74426 11.6479 3.73844C11.1706 3.73263 10.7108 3.88508 10.3699 4.16225C10.0289 4.43942 9.83462 4.81861 9.82977 5.21641C9.82492 5.6142 10.0099 5.99801 10.344 6.28341C10.6781 6.5688 11.134 6.7324 11.6114 6.73822C12.0887 6.74403 12.5484 6.59159 12.8894 6.31442C13.2304 6.03724 13.4247 5.65805 13.4295 5.26026Z" fill="#333333"/>
</svg>
