<svg width="36" height="35" viewBox="0 0 36 35" fill="none" xmlns="http://www.w3.org/2000/svg">
<path d="M9.30811 25.7031C9.37647 25.7031 9.44482 25.6963 9.51318 25.686L15.2622 24.6777C15.3306 24.6641 15.3955 24.6333 15.4434 24.582L29.9321 10.0933C29.9638 10.0616 29.989 10.0241 30.0061 9.98273C30.0233 9.94138 30.0321 9.89706 30.0321 9.85229C30.0321 9.80753 30.0233 9.7632 30.0061 9.72186C29.989 9.68051 29.9638 9.64295 29.9321 9.61133L24.2515 3.92725C24.1865 3.8623 24.1011 3.82812 24.0088 3.82812C23.9165 3.82812 23.8311 3.8623 23.7661 3.92725L9.27734 18.416C9.22607 18.4673 9.19531 18.5288 9.18164 18.5972L8.17334 24.3462C8.14009 24.5293 8.15197 24.7177 8.20795 24.8952C8.26394 25.0727 8.36233 25.2339 8.49463 25.3647C8.72021 25.5835 9.00391 25.7031 9.30811 25.7031ZM11.6118 19.7422L24.0088 7.34863L26.5142 9.854L14.1172 22.2476L11.0786 22.7842L11.6118 19.7422ZM30.5781 28.5742H5.42188C4.81689 28.5742 4.32812 29.063 4.32812 29.668V30.8984C4.32812 31.0488 4.45117 31.1719 4.60156 31.1719H31.3984C31.5488 31.1719 31.6719 31.0488 31.6719 30.8984V29.668C31.6719 29.063 31.1831 28.5742 30.5781 28.5742Z" fill="#454444"/>
</svg>
