<svg width="34" height="35" viewBox="0 0 34 35" fill="none" xmlns="http://www.w3.org/2000/svg">
<path d="M17 7C11.2016 7 6.5 11.7016 6.5 17.5C6.5 23.2984 11.2016 28 17 28C22.7984 28 27.5 23.2984 27.5 17.5C27.5 11.7016 22.7984 7 17 7ZM17 26.2188C12.1859 26.2188 8.28125 22.3141 8.28125 17.5C8.28125 15.4141 9.01484 13.4969 10.2383 11.9969L22.5031 24.2617C21.0031 25.4852 19.0859 26.2188 17 26.2188ZM23.7617 23.0031L11.4969 10.7383C12.9969 9.51484 14.9141 8.78125 17 8.78125C21.8141 8.78125 25.7188 12.6859 25.7188 17.5C25.7188 19.5859 24.9852 21.5031 23.7617 23.0031Z" fill="#454444"/>
</svg>
