<svg width="22" height="23" viewBox="0 0 22 23" fill="none" xmlns="http://www.w3.org/2000/svg">
<path fill-rule="evenodd" clip-rule="evenodd" d="M20.675 21.8413C20.82 21.9839 21.0178 22.0635 21.2236 22.0619C21.5375 22.0626 21.8207 21.8783 21.9409 21.5952C22.0611 21.3121 21.9945 20.9862 21.7722 20.7698L15.1528 14.3055C17.7256 11.2905 17.8071 6.93435 15.3488 3.82955C12.8904 0.724747 8.55272 -0.29444 4.91721 1.37853C1.28169 3.0515 -0.674779 6.96707 0.212125 10.795C1.09903 14.623 4.59099 17.3347 8.60987 17.3164C10.605 17.3284 12.5383 16.6406 14.0581 15.3782L20.675 21.8413ZM1.63266 8.99055C1.63358 5.22424 4.7607 2.17171 8.61742 2.17238C12.4731 2.17712 15.5969 5.22936 15.5997 8.99464C15.5983 12.7609 12.4708 15.8131 8.61408 15.812C4.75735 15.8109 1.63173 12.7569 1.63266 8.99055Z" fill="#787575"/>
</svg>
