<svg width="55" height="55" viewBox="0 0 55 55" fill="none" xmlns="http://www.w3.org/2000/svg">
<g clip-path="url(#clip0_1514_10068)">
<g clip-path="url(#clip1_1514_10068)">
<path d="M41.6114 18.6859L5.12196 20.8359C4.97374 20.8447 4.83399 20.9074 4.7264 21.0101C4.47987 21.2472 4.46854 21.6416 4.70755 21.8915L14.5025 32.1225C14.65 32.2764 14.8659 32.3457 15.0751 32.3017L21.0618 31.1321L17.0589 35.73C16.9181 35.8925 16.8682 36.1107 16.9312 36.3134L20.897 49.9325C20.9388 50.0752 21.0285 50.1993 21.1505 50.2778C21.4367 50.4688 21.824 50.3896 22.0184 50.1014L42.172 19.6568C42.2475 19.5455 42.2813 19.4087 42.2769 19.276C42.2525 18.9292 41.9568 18.6669 41.6114 18.6859ZM22.2755 44.617L19.9615 36.6793L27.9693 27.4868C28.0315 27.4148 28.0606 27.3168 28.0408 27.22C28.0062 27.0506 27.8438 26.9413 27.6725 26.9726L15.7096 29.3147L10.0147 23.365L37.4098 21.7522L22.2755 44.617Z" fill="#06786D"/>
</g>
</g>
<defs>
<clipPath id="clip0_1514_10068">
<rect x="0.358887" width="54.641" height="54.641" fill="white"/>
</clipPath>
<clipPath id="clip1_1514_10068">
<rect width="40" height="40" fill="white" transform="translate(0.358887 20) rotate(-30)"/>
</clipPath>
</defs>
</svg>
